<svg xmlns="http://www.w3.org/2000/svg" width="800" height="600" viewBox="0 0 800 600" fill="none">
  <defs>
    <linearGradient id="bgRw" x1="0" y1="0" x2="0" y2="1">
      <stop offset="0%" stop-color="#EAFBF2"/>
      <stop offset="100%" stop-color="#D8F9EC"/>
    </linearGradient>
    <linearGradient id="trophy" x1="0" y1="0" x2="1" y2="1">
      <stop offset="0%" stop-color="#34D399"/>
      <stop offset="100%" stop-color="#10B981"/>
    </linearGradient>
  </defs>
  <rect width="800" height="600" rx="32" fill="url(#bgRw)"/>
  <ellipse cx="400" cy="500" rx="250" ry="26" fill="#A7F3D0"/>
  <g transform="translate(260,140)">
    <rect x="80" y="240" width="120" height="28" rx="8" fill="#A7F3D0"/>
    <rect x="90" y="210" width="100" height="36" rx="8" fill="#34D399"/>
    <g transform="translate(0,0)">
      <path d="M60 40h220v40c0 44.2-35.8 80-80 80h-60c-44.2 0-80-35.8-80-80V40z" fill="url(#trophy)"/>
      <rect x="126" y="160" width="88" height="36" rx="8" fill="#10B981"/>
      <rect x="146" y="196" width="48" height="16" rx="8" fill="#059669"/>
    </g>
    <g fill="#34D399" opacity="0.6">
      <circle cx="20" cy="20" r="6"/>
      <circle cx="300" cy="16" r="6"/>
      <circle cx="340" cy="60" r="8"/>
      <circle cx="-10" cy="80" r="8"/>
    </g>
    <g transform="translate(20,40)" stroke="#10B981" opacity="0.35">
      <circle cx="0" cy="0" r="14"/>
      <circle cx="340" cy="260" r="14"/>
    </g>
    <g transform="translate(130,90)" fill="#ECFDF5">
      <path d="M30 0l7.6 15.4L54 18l-12 11.7L44 40l-14-7.4L16 40l2-10.3L6 18l16.4-2.6L30 0z"/>
    </g>
  </g>
</svg>
