<svg xmlns="http://www.w3.org/2000/svg" width="800" height="600" viewBox="0 0 800 600" fill="none">
  <defs>
    <linearGradient id="bgScan" x1="0" y1="0" x2="0" y2="1">
      <stop offset="0%" stop-color="#E8FBF4"/>
      <stop offset="100%" stop-color="#D2F7EA"/>
    </linearGradient>
    <linearGradient id="device" x1="0" y1="0" x2="1" y2="1">
      <stop offset="0%" stop-color="#10B981"/>
      <stop offset="100%" stop-color="#059669"/>
    </linearGradient>
  </defs>
  <rect width="800" height="600" rx="32" fill="url(#bgScan)"/>
  <ellipse cx="400" cy="500" rx="250" ry="26" fill="#A7F3D0"/>
  <g transform="translate(220,120)">
    <rect x="0" y="0" width="360" height="240" rx="24" fill="#ECFDF5" stroke="#A7F3D0"/>
    <rect x="280" y="-10" width="120" height="260" rx="24" fill="#ECFDF5" stroke="#A7F3D0"/>
    <rect x="24" y="24" width="312" height="192" rx="14" fill="#ffffff"/>
    <rect x="304" y="16" width="64" height="8" rx="4" fill="#10B981"/>
    <rect x="304" y="36" width="64" height="8" rx="4" fill="#34D399"/>
    <g transform="translate(50,60)">
      <rect x="0" y="0" width="200" height="120" rx="10" fill="#F0FDFA" stroke="#99F6E4"/>
      <rect x="10" y="10" width="180" height="6" rx="3" fill="#34D399"/>
      <rect x="10" y="30" width="180" height="6" rx="3" fill="#34D399"/>
      <rect x="10" y="50" width="180" height="6" rx="3" fill="#34D399"/>
      <rect x="10" y="70" width="180" height="6" rx="3" fill="#34D399"/>
      <rect x="10" y="90" width="120" height="6" rx="3" fill="#34D399"/>
      <rect x="-20" y="54" width="240" height="4" fill="#10B981"/>
    </g>
    <g transform="translate(320,60)">
      <rect width="64" height="120" rx="12" fill="url(#device)"/>
      <circle cx="32" cy="22" r="6" fill="#ECFDF5"/>
      <rect x="18" y="90" width="28" height="8" rx="4" fill="#A7F3D0"/>
    </g>
  </g>
  <g opacity="0.25" stroke="#10B981" fill="none">
    <circle cx="120" cy="160" r="12"/>
    <circle cx="690" cy="430" r="14"/>
    <circle cx="100" cy="420" r="10"/>
  </g>
</svg>
