<svg xmlns="http://www.w3.org/2000/svg" width="800" height="600" viewBox="0 0 800 600" fill="none">
  <defs>
    <linearGradient id="bgGrad" x1="0" y1="0" x2="0" y2="1">
      <stop offset="0%" stop-color="#E9FDF1"/>
      <stop offset="100%" stop-color="#D6FAE6"/>
    </linearGradient>
    <linearGradient id="binGrad" x1="0" y1="0" x2="1" y2="1">
      <stop offset="0%" stop-color="#10B981"/>
      <stop offset="100%" stop-color="#059669"/>
    </linearGradient>
  </defs>
  <rect width="800" height="600" rx="32" fill="url(#bgGrad)"/>
  <ellipse cx="400" cy="470" rx="240" ry="24" fill="#A7F3D0"/>
  <g transform="translate(270,140)">
    <rect x="0" y="40" width="260" height="320" rx="20" fill="url(#binGrad)"/>
    <rect x="14" y="0" width="232" height="60" rx="12" fill="#065F46"/>
    <rect x="40" y="140" width="180" height="130" rx="12" fill="#ECFDF5"/>
    <circle cx="70" cy="340" r="22" fill="#065F46"/>
    <circle cx="190" cy="340" r="22" fill="#065F46"/>
    <g transform="translate(110,200) scale(1.1)" fill="#10B981">
      <path d="M24 2a2 2 0 0 1 3.46 0l6.42 11.1a2 2 0 0 1-1.73 3H19.3a2 2 0 0 1-1.73-3L24 2z"/>
      <path d="M24 50a2 2 0 0 1-1.73-3l6.42-11.1a2 2 0 0 1 3.46 0L38.57 47a2 2 0 0 1-1.73 3H24z"/>
      <path d="M2 24a2 2 0 0 1 3-1.73l11.1 6.42a2 2 0 0 1 0 3.46L5 38.57A2 2 0 0 1 2 36.84V24z"/>
      <path d="M46 24v12.84a2 2 0 0 1-3 1.73l-11.1-6.42a2 2 0 0 1 0-3.46L43 22.27a2 2 0 0 1 3 1.73z"/>
    </g>
  </g>
  <g opacity="0.25" stroke="#10B981" fill="none">
    <circle cx="140" cy="140" r="18"/>
    <circle cx="680" cy="160" r="12"/>
    <circle cx="120" cy="400" r="10"/>
    <circle cx="700" cy="410" r="16"/>
  </g>
</svg>
