<svg xmlns="http://www.w3.org/2000/svg" width="800" height="600" viewBox="0 0 800 600" fill="none">
  <defs>
    <linearGradient id="bgSort" x1="0" y1="0" x2="0" y2="1">
      <stop offset="0%" stop-color="#E6FBF0"/>
      <stop offset="100%" stop-color="#D0F7E6"/>
    </linearGradient>
  </defs>
  <rect width="800" height="600" rx="32" fill="url(#bgSort)"/>
  <ellipse cx="400" cy="500" rx="250" ry="24" fill="#A7F3D0"/>
  <g transform="translate(160,140)">
    <rect x="0" y="0" width="480" height="260" rx="20" fill="#ECFDF5" stroke="#A7F3D0"/>
    <g transform="translate(30,40)">
      <rect x="0" y="0" width="120" height="160" rx="12" fill="#10B981"/>
      <rect x="10" y="12" width="100" height="136" rx="8" fill="#ECFDF5"/>
      <circle cx="60" cy="80" r="26" fill="#10B981"/>
    </g>
    <g transform="translate(180,40)">
      <rect x="0" y="0" width="120" height="160" rx="12" fill="#059669"/>
      <rect x="10" y="12" width="100" height="136" rx="8" fill="#ECFDF5"/>
      <rect x="36" y="65" width="48" height="30" rx="6" fill="#10B981"/>
    </g>
    <g transform="translate(330,40)">
      <rect x="0" y="0" width="120" height="160" rx="12" fill="#34D399"/>
      <rect x="10" y="12" width="100" height="136" rx="8" fill="#ECFDF5"/>
      <path d="M30 104h60l-30 24-30-24z" fill="#10B981"/>
    </g>
    <g transform="translate(30,220)" fill="#10B981">
      <rect x="0" y="0" width="420" height="8" rx="4"/>
    </g>
  </g>
  <g opacity="0.25" stroke="#10B981" fill="none">
    <circle cx="120" cy="160" r="12"/>
    <circle cx="690" cy="430" r="14"/>
  </g>
</svg>
